# xmcd
#
# Track frame offsets: 
#        182
#        12720
#        24142
#        35827
#        44952
#        56225
#        68810
#        84217
#        96775
#        109482
#        124325
#        138010
#        148230
#        159587
#
# Disc length: 2259 seconds
#
# Revision: 0
# Processed by: cddbd v1.5.2PL0 Copyright (c) Steve Scherf et al.
# Submitted via: ExactAudioCopyFreeDBPlugin 1.0
#
DISCID=ce08d10e
DTITLE=Chansons Swing - Chansons Swing
DYEAR=1990
DGENRE=Swing
TTITLE0=Charles Trenet - Je Chante - Charles Trenet
TTITLE1=Johnny Hess - Je Suis Swing - Johnny Hess
TTITLE2=Joséphine Baker and Orchestre - Si j'étais blanche - Joséphine B
TTITLE2=aker and Orchestre
TTITLE3=Maurice Chevalier - J'ai d'la veine - Maurice Chevalier
TTITLE4=Jean Tranchant - Ily a toujours quelqu'un - Jean Tranchant
TTITLE5=Jean Tranchant - Souvenirs - Jean Tranchant
TTITLE6=Germaine Sablon - Ici l'on pêche - Germaine Sablon
TTITLE7=Jean Sablon - Eitegnons tout et couchons nous - Jean Sablon
TTITLE8=Charles et Johnny - Sous le lit de Lily - Charles et Johnny
TTITLE9=Pills and Tabet - C'est le début d'une aventure - Pills and Tabet
TTITLE10=Guy Berry - Dansez - Guy Berry
TTITLE11=Charles Trenet - Chacun son rêve - Charles Trenet
TTITLE12=Irène de Trébert - Stop - Irène de Trébert
TTITLE13=Maurice Chevallier - La leçon de Charleston - Maurice Chevali
TTITLE13=er
EXTD=
EXTT0=
EXTT1=
EXTT2=
EXTT3=
EXTT4=
EXTT5=
EXTT6=
EXTT7=
EXTT8=
EXTT9=
EXTT10=
EXTT11=
EXTT12=
EXTT13=
PLAYORDER=
